<?xml version="1.0" standalone="no"?>
<!DOCTYPE svg PUBLIC "-//W3C//DTD SVG 20010904//EN"
 "http://www.w3.org/TR/2001/REC-SVG-20010904/DTD/svg10.dtd">
<svg version="1.0" xmlns="http://www.w3.org/2000/svg"
 width="512.000000pt" height="512.000000pt" viewBox="0 0 512.000000 512.000000"
 preserveAspectRatio="xMidYMid meet">

<g transform="translate(0.000000,512.000000) scale(0.100000,-0.100000)"
fill="#fff" stroke="none">
<path d="M2028 4700 c-13 -8 -253 -338 -280 -385 -3 -5 -41 -326 -84 -711
l-78 -702 -74 -4 c-78 -5 -107 -20 -146 -72 -29 -38 -29 -114 0 -152 11 -15
33 -37 48 -48 27 -21 32 -21 1146 -21 1114 0 1119 0 1146 21 15 11 37 33 48
48 29 38 29 114 0 152 -39 52 -68 67 -146 72 l-74 4 -78 702 c-43 385 -81 706
-84 711 -31 55 -268 378 -282 385 -25 13 -1039 13 -1062 0z m1150 -247 l122
-172 75 -672 c41 -370 75 -681 75 -691 0 -17 -21 -18 -444 -18 -444 0 -445 0
-460 -22 -11 -15 -12 -26 -5 -39 9 -18 40 -19 569 -21 511 -3 561 -4 576 -20
22 -22 22 -74 0 -96 -15 -16 -96 -17 -1115 -20 l-1098 -2 -26 21 c-36 28 -36
70 -1 98 25 20 39 21 268 21 243 0 266 3 266 36 0 7 -7 20 -16 28 -12 13 -41
16 -155 16 -128 0 -139 1 -139 18 0 10 34 321 75 690 l75 672 97 138 c53 75
110 154 126 175 l29 37 491 -2 492 -3 123 -172z"/>
<path d="M2546 4504 c-12 -12 -16 -36 -16 -100 l0 -84 -139 0 -140 0 -3 51
c-2 36 -8 55 -20 63 -31 19 -53 -4 -56 -63 l-3 -51 -83 0 c-93 0 -120 -12
-114 -51 l3 -24 585 0 585 0 3 24 c6 39 -21 51 -114 51 l-83 0 -3 51 c-3 59
-25 82 -55 63 -13 -8 -19 -27 -21 -63 l-3 -51 -130 0 -129 0 0 94 c0 76 -3 95
-16 100 -24 9 -31 8 -48 -10z"/>
<path d="M2166 2884 c-19 -19 -20 -25 -3 -48 10 -14 26 -16 97 -14 80 3 85 4
88 26 6 41 -14 52 -94 52 -53 0 -77 -4 -88 -16z"/>
<path d="M746 2501 c-9 -10 -74 -100 -144 -200 l-128 -181 -77 -697 c-43 -384
-77 -701 -77 -704 0 -4 -36 -8 -79 -11 -52 -3 -88 -11 -106 -22 -89 -59 -86
-202 7 -253 31 -17 94 -18 1148 -18 1097 0 1116 0 1149 20 19 11 43 33 55 48
29 39 29 115 0 153 -39 53 -69 68 -151 74 l-78 5 -77 690 c-42 380 -77 695
-77 701 -1 13 -241 356 -274 392 l-20 22 -527 0 c-502 0 -528 -1 -544 -19z
m1163 -236 l122 -175 75 -667 c41 -367 74 -677 74 -690 l0 -23 -890 0 c-705 0
-890 3 -890 13 0 6 34 317 75 691 l76 678 96 137 c53 75 110 153 126 174 l29
37 492 0 492 0 123 -175z m512 -1664 c24 -29 24 -53 0 -82 l-19 -24 -1095 -3
c-709 -1 -1104 1 -1121 8 -51 19 -54 99 -4 120 14 5 474 8 1121 7 l1099 -2 19
-24z"/>
<path d="M1283 2323 c-9 -3 -13 -33 -13 -99 l0 -94 -145 0 -144 0 -3 58 c-3
51 -5 57 -26 60 -37 5 -52 -15 -52 -69 l0 -49 -89 0 c-98 0 -118 -10 -107 -55
l6 -25 583 2 582 3 3 23 c6 43 -13 52 -109 52 l-89 0 0 44 c0 62 -8 76 -40 76
-32 0 -40 -14 -40 -76 l0 -44 -124 0 -124 0 -4 90 c-3 102 -17 123 -65 103z"/>
<path d="M607 1303 c-3 -5 -15 -97 -27 -206 -17 -156 -19 -201 -10 -212 15
-18 44 -19 58 -2 13 15 57 391 48 412 -6 15 -61 21 -69 8z"/>
<path d="M3286 2498 c-35 -32 -276 -377 -277 -397 0 -9 -35 -324 -77 -701
l-78 -685 -79 -7 c-84 -8 -112 -21 -149 -71 -14 -19 -20 -42 -20 -77 0 -54 18
-87 68 -124 27 -21 32 -21 1149 -21 1061 0 1124 1 1155 18 45 25 72 72 72 127
0 94 -69 149 -187 150 -35 0 -63 3 -63 8 0 4 -34 321 -77 704 l-77 698 -128
182 c-71 101 -138 191 -149 201 -20 16 -60 17 -540 17 l-518 0 -25 -22z m1161
-235 l122 -173 76 -677 c41 -373 75 -684 75 -690 0 -10 -34 -13 -134 -13 -109
0 -138 -3 -150 -16 -9 -8 -16 -21 -16 -28 0 -33 23 -36 256 -36 128 0 244 -4
258 -10 48 -18 47 -99 -1 -119 -21 -8 -319 -11 -1121 -9 l-1094 3 -19 24 c-24
29 -24 53 0 82 l19 24 756 3 c720 2 756 3 765 21 7 13 6 24 -5 39 l-15 22
-640 0 -639 0 0 23 c0 13 33 323 74 690 l74 667 108 152 c59 84 116 163 127
176 l21 22 490 -2 490 -3 123 -172z"/>
<path d="M3810 2311 c-5 -11 -10 -56 -10 -100 l0 -81 -140 0 -140 0 0 44 c0
62 -8 76 -40 76 -32 0 -40 -14 -40 -76 l0 -44 -89 0 c-96 0 -115 -9 -109 -52
l3 -23 579 0 c540 0 580 1 590 18 8 12 8 22 0 35 -9 14 -28 18 -103 20 l-91 3
0 48 c0 54 -15 74 -52 69 -21 -3 -23 -9 -26 -60 l-3 -58 -129 0 -130 0 0 88
c0 55 -4 92 -12 100 -18 18 -46 14 -58 -7z"/>
<path d="M4401 1756 c-11 -13 -10 -32 6 -88 5 -22 46 -24 63 -3 9 11 10 27 4
58 -8 35 -13 43 -35 45 -14 2 -31 -4 -38 -12z"/>
<path d="M4433 1563 c-17 -6 -16 -59 2 -217 16 -133 24 -156 55 -156 39 0 41
20 23 190 -19 182 -29 204 -80 183z"/>
</g>
</svg>
