<?xml version="1.0" standalone="no"?>
<!DOCTYPE svg PUBLIC "-//W3C//DTD SVG 20010904//EN"
 "http://www.w3.org/TR/2001/REC-SVG-20010904/DTD/svg10.dtd">
<svg version="1.0" xmlns="http://www.w3.org/2000/svg"
 width="512.000000pt" height="512.000000pt" viewBox="0 0 512.000000 512.000000"
 preserveAspectRatio="xMidYMid meet">

<g transform="translate(0.000000,512.000000) scale(0.100000,-0.100000)"
fill="#fff" stroke="none">
<path d="M1160 4984 c-46 -20 -68 -41 -93 -89 -18 -37 -167 -469 -167 -487 0
-5 747 -8 1660 -8 913 0 1660 3 1660 8 0 18 -149 450 -167 487 -25 49 -47 69
-96 90 -32 13 -195 15 -1399 15 -1191 -1 -1367 -3 -1398 -16z"/>
<path d="M737 4302 c-10 -10 -23 -59 -32 -117 -8 -55 -18 -110 -20 -122 l-5
-23 1880 0 1880 0 -5 23 c-2 12 -11 64 -19 115 -8 52 -22 104 -31 118 l-15 24
-1809 0 c-1724 0 -1809 -1 -1824 -18z"/>
<path d="M967 3538 c23 -233 42 -431 43 -440 0 -17 81 -18 1550 -18 1469 0
1550 1 1550 18 1 9 20 207 43 440 l43 422 -1636 0 -1636 0 43 -422z"/>
<path d="M1060 2043 l95 -958 1405 0 1405 0 95 958 96 957 -1596 0 -1596 0 96
-957z m1658 435 c129 -61 231 -208 266 -380 56 -273 -59 -556 -268 -658 -37
-18 -69 -31 -72 -28 -3 3 3 34 12 69 12 43 18 103 18 184 1 133 -9 174 -72
300 -91 182 -104 329 -46 508 l16 48 42 -6 c22 -3 69 -20 104 -37z m-242 10
c-16 -53 -35 -177 -36 -226 0 -88 28 -201 77 -302 63 -130 73 -163 80 -251 6
-78 -5 -166 -33 -258 l-15 -53 -42 7 c-70 11 -164 62 -223 122 -97 98 -164
276 -164 432 0 224 115 437 281 520 74 37 83 38 75 9z"/>
<path d="M1224 958 c3 -24 17 -164 32 -313 18 -188 32 -286 46 -322 25 -67 92
-137 166 -171 l57 -27 1035 0 1035 0 68 33 c78 39 136 103 161 179 8 27 26
165 40 308 14 143 29 281 32 308 l6 47 -1342 0 -1342 0 6 -42z"/>
</g>
</svg>
