<?xml version="1.0" standalone="no"?>
<!DOCTYPE svg PUBLIC "-//W3C//DTD SVG 20010904//EN"
 "http://www.w3.org/TR/2001/REC-SVG-20010904/DTD/svg10.dtd">
<svg version="1.0" xmlns="http://www.w3.org/2000/svg"
 width="512.000000pt" height="512.000000pt" viewBox="0 0 512.000000 512.000000"
 preserveAspectRatio="xMidYMid meet">

<g transform="translate(0.000000,512.000000) scale(0.100000,-0.100000)"
fill="#fff" stroke="none">
<path d="M1016 4600 c-229 -36 -446 -148 -611 -315 -460 -465 -535 -1315 -182
-2049 112 -232 218 -385 387 -560 271 -280 577 -441 911 -478 101 -11 263 -3
336 18 19 5 26 -3 56 -62 166 -327 477 -543 892 -620 136 -26 448 -26 585 -1
374 69 679 202 981 429 373 280 629 660 721 1069 19 87 23 130 22 269 -1 143
-4 178 -26 261 -37 136 -82 239 -152 343 -175 262 -446 430 -811 503 -139 28
-479 25 -637 -5 -222 -42 -475 -133 -660 -237 -44 -25 -82 -44 -83 -43 -1 2
-12 41 -24 88 -28 106 -96 280 -151 390 -261 519 -692 885 -1160 986 -89 19
-311 27 -394 14z m378 -319 c366 -96 710 -409 916 -835 66 -137 120 -289 149
-421 l20 -90 -108 -102 c-118 -112 -230 -244 -309 -366 l-51 -78 -40 85 c-100
209 -262 396 -474 546 -260 184 -411 402 -472 680 -19 87 -31 453 -18 540 8
54 9 55 48 62 71 12 256 0 339 -21z m-691 -338 c6 -206 22 -313 68 -451 90
-274 279 -526 524 -697 119 -83 251 -207 311 -291 90 -125 155 -282 185 -444
7 -38 13 -164 13 -308 l1 -242 -35 -7 c-19 -5 -84 -7 -145 -7 -563 5 -1116
565 -1279 1295 -95 430 -33 865 167 1159 32 47 165 190 177 190 4 0 10 -89 13
-197z m3418 -842 c156 -36 316 -110 409 -189 42 -36 51 -32 -144 -66 -315 -55
-544 -167 -749 -365 -126 -121 -205 -231 -298 -416 -102 -201 -134 -250 -234
-354 -125 -130 -257 -216 -420 -270 -106 -35 -513 -107 -528 -92 -20 20 -49
152 -54 252 -7 133 8 243 52 376 188 565 774 1031 1434 1138 124 21 417 13
532 -14z m656 -546 c99 -276 16 -655 -214 -978 -73 -102 -262 -295 -370 -376
-582 -436 -1336 -516 -1778 -189 l-70 52 50 8 c264 43 425 88 566 158 181 91
392 277 502 441 31 48 91 154 131 236 136 274 276 422 511 541 110 55 196 79
414 118 234 41 240 41 258 -11z"/>
</g>
</svg>
