<?xml version="1.0" standalone="no"?>
<!DOCTYPE svg PUBLIC "-//W3C//DTD SVG 20010904//EN"
 "http://www.w3.org/TR/2001/REC-SVG-20010904/DTD/svg10.dtd">
<svg version="1.0" xmlns="http://www.w3.org/2000/svg"
 width="512.000000pt" height="512.000000pt" viewBox="0 0 512.000000 512.000000"
 preserveAspectRatio="xMidYMid meet">

<g transform="translate(0.000000,512.000000) scale(0.100000,-0.100000)"
fill="#fff" stroke="none">
<path d="M1138 5099 c-23 -12 -46 -35 -58 -59 -19 -37 -20 -58 -20 -430 l0
-390 1595 0 c1135 0 1609 3 1647 11 84 18 158 59 223 124 71 70 110 146 127
246 40 230 -118 458 -350 508 -38 8 -480 11 -1590 11 -1511 -1 -1538 -1 -1574
-21z"/>
<path d="M726 2024 c-159 -1109 -266 -1887 -262 -1905 8 -43 40 -84 80 -103
31 -15 208 -16 2015 -16 1966 0 1982 0 2021 20 26 13 47 34 60 60 19 37 20 58
20 370 0 312 -1 333 -20 370 -13 26 -34 47 -60 60 -39 20 -56 20 -1330 20
l-1290 0 0 1500 0 1500 -483 0 -483 0 -268 -1876z m554 -1144 c45 -23 80 -80
80 -130 0 -76 -74 -150 -151 -150 -46 0 -108 39 -130 82 -37 72 -14 151 57
194 48 29 92 30 144 4z"/>
<path d="M2634 3653 c46 -137 90 -263 100 -280 9 -19 34 -42 56 -53 37 -19 58
-20 370 -20 312 0 333 1 370 20 22 11 47 34 56 53 10 17 54 143 100 280 l82
247 -608 0 -608 0 82 -247z"/>
<path d="M3010 2850 l0 -150 -315 0 c-297 0 -318 -1 -355 -20 -26 -13 -47 -34
-60 -61 -21 -40 -21 -51 -18 -502 4 -437 5 -466 26 -540 27 -99 88 -224 152
-309 l50 -68 670 0 670 0 49 67 c28 37 67 104 88 150 l38 82 122 1 c202 0 295
32 398 135 178 177 178 452 0 631 -97 98 -197 134 -370 134 l-95 0 0 90 c0
112 -20 159 -80 190 -37 19 -58 20 -355 20 l-315 0 0 150 0 150 -150 0 -150 0
0 -150z m1270 -770 c45 -23 80 -80 80 -130 0 -50 -35 -107 -80 -130 -31 -16
-59 -20 -130 -20 l-90 0 0 150 0 150 90 0 c71 0 99 -4 130 -20z"/>
</g>
</svg>
