<?xml version="1.0" standalone="no"?>
<!DOCTYPE svg PUBLIC "-//W3C//DTD SVG 20010904//EN"
 "http://www.w3.org/TR/2001/REC-SVG-20010904/DTD/svg10.dtd">
<svg version="1.0" xmlns="http://www.w3.org/2000/svg"
 width="24.000000pt" height="24.000000pt" viewBox="0 0 24.000000 24.000000"
 preserveAspectRatio="xMidYMid meet">

<g transform="translate(0.000000,24.000000) scale(0.100000,-0.100000)"
fill="#fff" stroke="none">
<path d="M24 187 c-3 -8 -4 -43 -2 -78 l3 -64 48 -3 c28 -2 47 1 47 7 0 6 -18
11 -40 11 l-40 0 0 50 0 50 40 -25 40 -25 40 25 40 25 0 -24 c0 -14 5 -28 11
-31 7 -5 9 9 7 42 l-3 48 -93 3 c-72 2 -94 0 -98 -11z m166 -11 c0 -2 -16 -13
-35 -25 l-35 -20 -35 20 c-19 12 -35 23 -35 25 0 2 32 4 70 4 39 0 70 -2 70
-4z"/>
<path d="M200 77 c0 -12 -8 -17 -30 -17 -16 0 -30 -4 -30 -10 0 -5 14 -10 30
-10 20 0 30 -5 30 -15 0 -11 5 -10 21 6 l21 21 -21 21 c-18 19 -21 19 -21 4z"/>
</g>
</svg>
