<?xml version="1.0"  standalone="no"?>
<!DOCTYPE svg PUBLIC "-//W3C//DTD SVG 20010904//EN"
 "http://www.w3.org/TR/2001/REC-SVG-20010904/DTD/svg10.dtd">
<svg version="1.0" xmlns="http://www.w3.org/2000/svg"
 width="24.000000pt" height="24.000000pt" viewBox="0 0 24.000000 24.000000"
 preserveAspectRatio="xMidYMid meet">

<g transform="translate(0.000000,24.000000) scale(0.100000,-0.100000)"
fill="#fff" stroke="none">
<path d="M59 211 c-33 -33 -38 -74 -13 -109 9 -13 11 -22 4 -22 -9 0 -40 -57
-40 -75 0 -3 49 -5 110 -5 61 0 110 2 110 5 0 18 -31 75 -40 75 -7 0 -5 9 4
22 38 54 -7 138 -74 138 -22 0 -41 -9 -61 -29z m91 -36 c15 -18 10 -45 -12
-59 -35 -22 -74 27 -48 59 16 19 44 19 60 0z m-48 -132 c17 -15 19 -15 36 0
17 15 52 24 52 13 0 -2 3 -11 6 -20 5 -14 -5 -16 -75 -16 -45 0 -81 2 -81 4 0
36 33 46 62 19z"/>
</g>
</svg>
